<svg xmlns="http://www.w3.org/2000/svg" width="160px" height="160px" viewBox="0 0 160 160">
<style type="text/css">
	.st0{display:none;}
	.st1{display:inline;fill:#666DFF;}
	.st2{display:inline;}
	.st3{fill:#55FFFF;}
	.st4{fill:#666DFF;}
	.st5{display:inline;fill:#C3CCD4;}
	.st6{display:inline;fill:#55FFFF;}
	.st7{display:inline;fill:#55FFFF;stroke:#666DFF;stroke-width:3;stroke-miterlimit:10;stroke-dasharray:6,3;}
	.st8{fill:#C3CCD4;}
	.st9{display:inline;fill:#FFFFFF;}
</style>
<g id="ballons" class="st0">
	<path class="st1" d="M106.8,117.2C87.1,117.2,71,97.5,71,73.3c0-24.2,16.1-43.9,35.8-43.9s35.8,19.7,35.8,43.9
		C142.7,97.5,126.6,117.2,106.8,117.2z M106.8,32.4C88.7,32.4,74,50.7,74,73.3c0,22.6,14.7,40.9,32.8,40.9s32.8-18.3,32.8-40.9
		C139.7,50.7,124.9,32.4,106.8,32.4z"/>
	<g class="st2">
		<ellipse class="st3" cx="62.8" cy="55.7" rx="43.9" ry="54.2"/>
		<path class="st4" d="M62.8,111.5c-25,0-45.4-25-45.4-55.7C17.3,25,37.7,0,62.8,0c25,0,45.4,25,45.4,55.7
			C108.2,86.5,87.8,111.5,62.8,111.5z M62.8,3C39.4,3,20.3,26.7,20.3,55.7c0,29.1,19,52.7,42.4,52.7c23.4,0,42.4-23.7,42.4-52.7
			C105.2,26.7,86.2,3,62.8,3z"/>
	</g>
	<path class="st1" d="M108.2,157.7l-3,0l0-6l3,0L108.2,157.7z M108.2,148.7l-3,0l0-6l3,0L108.2,148.7z M108.3,139.7l-3,0l0-6l3,0
		L108.3,139.7z M108.3,130.7l-3,0l0-6l3,0L108.3,130.7z M108.3,121.7l-3,0l0-6l3,0L108.3,121.7z"/>
	<rect x="61.3" y="108.8" class="st1" width="3" height="3"/>
	<path class="st1" d="M64.3,153.9h-3v-5.6h3V153.9z M64.3,145.5h-3v-5.6h3V145.5z M64.3,137h-3v-5.6h3V137z M64.3,128.6h-3V123h3
		V128.6z M64.3,120.2h-3v-5.6h3V120.2z"/>
	<rect x="61.3" y="157" class="st1" width="3" height="3"/>
</g>
<g id="cogs" class="st0">
	<path class="st5" d="M129.3,96.6L129.3,96.6l3.4,0.2c1.2,0.1,2.2,1.1,2.1,2.3v0c-0.1,1.2-1.1,2.2-2.3,2.1l-3.4-0.2v0
		c-1.4-0.2-2.7,0.8-2.9,2.2c-0.2,1.4,0.7,2.7,2.1,2.9c0,0,0,0,0,0l3.3,0.8c1.2,0.3,1.9,1.5,1.6,2.7v0c-0.3,1.2-1.5,1.9-2.7,1.6
		l-3.3-0.8c0,0,0,0,0,0c-1.3-0.4-2.8,0.3-3.2,1.6c-0.5,1.3,0.2,2.8,1.5,3.3c0,0,0,0,0,0l3.1,1.4c1.1,0.5,1.6,1.9,1.1,3
		c-0.5,1.1-1.9,1.6-3,1.1l-3.1-1.4c0,0,0,0,0,0c-1.2-0.7-2.8-0.3-3.5,0.9c-0.7,1.2-0.3,2.8,0.8,3.5l0,0l2.7,2c1,0.7,1.2,2.1,0.5,3.1
		v0c-0.7,1-2.1,1.2-3.1,0.5l-2.7-2c0,0,0,0,0,0c-1.1-0.9-2.7-0.8-3.6,0.2c-0.9,1-0.9,2.6,0.1,3.6c0,0,0,0,0,0l2.3,2.5
		c0.8,0.9,0.8,2.3-0.1,3.2c-0.9,0.8-2.3,0.8-3.2-0.1l-2.3-2.5c0,0,0,0,0,0c-0.9-1.1-2.5-1.3-3.6-0.5c-1.1,0.8-1.4,2.4-0.6,3.6
		c0,0,0,0,0,0l1.8,2.9c0.6,1.1,0.3,2.4-0.8,3.1c-1.1,0.6-2.4,0.3-3.1-0.8l-1.8-2.9c0,0,0,0,0,0c-0.6-1.2-2.1-1.8-3.4-1.2
		c-1.3,0.6-1.8,2.1-1.2,3.4c0,0,0,0,0,0l1.2,3.2c0.4,1.2-0.2,2.5-1.3,2.9c-1.2,0.4-2.4-0.2-2.9-1.3l-1.2-3.2c0,0,0,0,0,0
		c-0.4-1.3-1.8-2.2-3.1-1.8c-1.4,0.3-2.2,1.7-1.9,3.1c0,0,0,0,0,0l0.5,3.4c0.2,1.2-0.7,2.4-1.9,2.5c-1.2,0.2-2.4-0.7-2.5-1.9
		l-0.5-3.4h0c-0.1-1.4-1.3-2.5-2.7-2.4c-1.4,0.1-2.5,1.2-2.5,2.6h0l-0.2,3.4c-0.1,1.2-1.1,2.2-2.3,2.1h0c-1.2-0.1-2.2-1.1-2.1-2.3
		l0.2-3.4c0,0,0,0,0,0c0.2-1.4-0.8-2.7-2.2-2.9c-1.4-0.2-2.7,0.7-2.9,2.1c0,0,0,0,0,0l-0.8,3.3c-0.3,1.2-1.5,1.9-2.7,1.6l0,0
		c-1.2-0.3-1.9-1.5-1.6-2.7l0.8-3.3c0,0,0,0,0,0c0.4-1.3-0.3-2.8-1.6-3.2c-1.3-0.5-2.8,0.2-3.3,1.5c0,0,0,0,0,0l-1.4,3.1
		c-0.5,1.1-1.9,1.6-3,1.1h0c-1.1-0.5-1.6-1.9-1.1-3l1.4-3.1c0,0,0,0,0,0c0.7-1.2,0.3-2.8-0.9-3.5c-1.2-0.7-2.8-0.3-3.5,0.8
		c0,0,0,0,0,0l-2,2.7c-0.7,1-2.1,1.2-3.1,0.5c-1-0.7-1.2-2.1-0.5-3.1l2-2.7c0,0,0,0,0,0c0.9-1.1,0.8-2.7-0.2-3.6
		c-1-0.9-2.6-0.9-3.6,0.1c0,0,0,0,0,0l-2.5,2.3c-0.9,0.8-2.3,0.8-3.2-0.1l0,0c-0.8-0.9-0.8-2.3,0.1-3.2l2.5-2.3c0,0,0,0,0,0
		c1.1-0.9,1.3-2.5,0.5-3.6c-0.8-1.1-2.4-1.4-3.6-0.6c0,0,0,0,0,0l-2.9,1.8c-1.1,0.6-2.4,0.3-3.1-0.8c-0.6-1.1-0.3-2.4,0.8-3.1
		l2.9-1.8c0,0,0,0,0,0c1.2-0.6,1.8-2.1,1.2-3.4c-0.6-1.3-2.1-1.8-3.4-1.3v0l-3.2,1.2c-1.2,0.4-2.4-0.2-2.9-1.3
		c-0.4-1.2,0.2-2.4,1.3-2.9l3.2-1.2c0,0,0,0,0,0c1.3-0.4,2.2-1.8,1.8-3.1c-0.3-1.4-1.7-2.2-3.1-1.9c0,0,0,0,0,0l-3.4,0.5
		c-1.2,0.2-2.4-0.7-2.5-1.9c-0.2-1.2,0.7-2.4,1.9-2.5l3.4-0.5c0,0,0,0,0,0c1.4-0.1,2.5-1.3,2.4-2.7c-0.1-1.4-1.2-2.5-2.6-2.5v0
		l-3.4-0.2c-1.2-0.1-2.2-1.1-2.1-2.3h0c0.1-1.2,1.1-2.2,2.3-2.1l3.4,0.2c0,0,0,0,0,0c1.4,0.2,2.7-0.8,2.9-2.2
		c0.2-1.4-0.7-2.7-2.1-2.9c0,0,0,0,0,0l-3.3-0.8c-1.2-0.3-1.9-1.5-1.6-2.7c0.3-1.2,1.5-1.9,2.7-1.6l3.3,0.8c0,0,0,0,0,0
		c1.3,0.4,2.8-0.3,3.2-1.6c0.5-1.3-0.2-2.8-1.5-3.3c0,0,0,0,0,0l-3.1-1.4c-1.1-0.5-1.6-1.9-1.1-3v0c0.5-1.1,1.9-1.6,3-1.1l3.1,1.4
		c0,0,0,0,0,0c1.2,0.7,2.8,0.3,3.5-0.9c0.7-1.2,0.3-2.8-0.8-3.5c0,0,0,0,0,0l-2.7-2c-1-0.7-1.2-2.1-0.5-3.1c0.7-1,2.1-1.2,3.1-0.5
		l2.7,2c0,0,0,0,0,0c1.1,0.9,2.7,0.8,3.6-0.2c0.9-1,0.9-2.6-0.1-3.6c0,0,0,0,0,0l-2.3-2.5c-0.8-0.9-0.8-2.3,0.1-3.2v0
		c0.9-0.8,2.3-0.8,3.2,0.1l2.3,2.5c0,0,0,0,0,0c0.9,1.1,2.4,1.3,3.6,0.5c1.1-0.8,1.4-2.4,0.6-3.6c0,0,0,0,0,0l-1.8-2.9
		c-0.6-1.1-0.3-2.4,0.8-3.1c1.1-0.6,2.4-0.3,3.1,0.8l1.8,2.9c0,0,0,0,0,0c0.6,1.2,2.1,1.8,3.4,1.2c1.3-0.6,1.8-2.1,1.3-3.4
		c0,0,0,0,0,0L60,47.9c-0.4-1.2,0.2-2.4,1.3-2.9c1.2-0.4,2.4,0.2,2.9,1.3l1.2,3.2c0,0,0,0,0,0c0.4,1.3,1.8,2.2,3.1,1.8
		c1.4-0.3,2.2-1.7,1.9-3.1c0,0,0,0,0,0l-0.5-3.4c-0.2-1.2,0.7-2.4,1.9-2.5h0c1.2-0.2,2.4,0.7,2.5,1.9l0.5,3.4h0
		c0.1,1.4,1.3,2.5,2.7,2.4c1.4-0.1,2.5-1.2,2.5-2.6c0,0,0,0,0,0l0.2-3.4c0.1-1.2,1.1-2.2,2.3-2.1l0,0c1.2,0.1,2.2,1.1,2.1,2.3
		l-0.2,3.4c0,0,0,0,0,0c-0.2,1.4,0.8,2.7,2.2,2.9c1.4,0.2,2.7-0.7,2.9-2.1c0,0,0,0,0,0l0.8-3.3c0.3-1.2,1.5-1.9,2.7-1.6v0
		c1.2,0.3,1.9,1.5,1.6,2.7L94,49.4c0,0,0,0,0,0c-0.4,1.3,0.3,2.8,1.6,3.2c1.3,0.5,2.8-0.2,3.3-1.5c0,0,0,0,0,0l1.4-3.1
		c0.5-1.1,1.9-1.6,3-1.1l0,0c1.1,0.5,1.6,1.9,1.1,3L103,53h0c-0.7,1.2-0.3,2.8,0.9,3.5c1.2,0.7,2.8,0.3,3.5-0.8c0,0,0,0,0,0l2-2.7
		c0.7-1,2.1-1.2,3.1-0.5c1,0.7,1.2,2.1,0.5,3.1l-2,2.7c0,0,0,0,0,0c-0.9,1.1-0.8,2.7,0.2,3.6c1,0.9,2.6,0.9,3.6-0.1c0,0,0,0,0,0
		l2.5-2.3c0.9-0.8,2.3-0.8,3.2,0.1c0.8,0.9,0.8,2.3-0.1,3.2l-2.5,2.3c0,0,0,0,0,0c-1.1,0.9-1.3,2.4-0.5,3.6c0.8,1.1,2.4,1.4,3.6,0.6
		l0,0l2.9-1.8c1.1-0.6,2.4-0.3,3.1,0.8c0.6,1.1,0.3,2.4-0.8,3.1l-2.9,1.8c0,0,0,0,0,0c-1.2,0.6-1.8,2.1-1.2,3.4
		c0.6,1.3,2.1,1.8,3.4,1.3c0,0,0,0,0,0l3.2-1.2c1.2-0.4,2.4,0.2,2.9,1.3c0.4,1.2-0.2,2.4-1.3,2.9l-3.2,1.2c0,0,0,0,0,0
		c-1.3,0.4-2.2,1.8-1.8,3.1c0.3,1.4,1.7,2.2,3.1,1.9c0,0,0,0,0,0l3.4-0.5c1.2-0.2,2.4,0.7,2.5,1.9v0c0.2,1.2-0.7,2.4-1.9,2.5
		l-3.4,0.5v0c-1.4,0.1-2.5,1.3-2.4,2.7C126.7,95.6,127.9,96.7,129.3,96.6z M115.3,113.2l-25.9-7.5l0,0c-2.1,2.2-4.9,3.6-7.9,3.9l0,0
		l-10.1,25C89.2,138.7,107.5,129.7,115.3,113.2z M88.4,96.3c-0.2-4.6-4.1-8.3-8.7-8.1c-4.6,0.2-8.3,4.1-8.1,8.7
		c0.2,4.6,4.1,8.3,8.7,8.1C84.9,104.8,88.6,100.9,88.4,96.3z M41.9,88.2C38,106.1,47,124.3,63.6,132l7.3-26l0,0
		c-2.2-2.1-3.6-4.9-3.9-7.9l0,0L41.9,88.2z M44.7,80l25.9,7.5l0,0c2.1-2.2,4.9-3.6,7.9-3.9l0,0l10.1-25C70.8,54.5,52.5,63.5,44.7,80
		z M96.4,61.2l-7.3,26l0,0c2.2,2.1,3.6,4.9,3.9,7.9l0,0l25.1,9.8C122,87.2,113,68.9,96.4,61.2z"/>
	<path class="st1" d="M80,160c-0.7,0-1.4,0-2.2,0l0.1-2.9c1.9,0.1,3.8,0,5.7-0.1l0.2,2.9C82.6,160,81.3,160,80,160z M74.9,159.8
		c-2-0.2-4-0.4-5.9-0.8l0.5-2.9c1.9,0.3,3.8,0.6,5.7,0.7L74.9,159.8z M86.8,159.6l-0.3-2.9c1.9-0.2,3.8-0.5,5.6-0.9l0.6,2.9
		C90.8,159.1,88.8,159.4,86.8,159.6z M66,158.4c-1.9-0.4-3.9-1-5.8-1.6l0.9-2.8c1.8,0.6,3.7,1.1,5.5,1.5L66,158.4z M95.6,158.1
		l-0.7-2.8c1.8-0.5,3.7-1,5.5-1.7l1,2.8C99.5,157,97.6,157.6,95.6,158.1z M57.4,155.9c-1.9-0.7-3.7-1.5-5.5-2.4l1.3-2.6
		c1.7,0.8,3.5,1.6,5.2,2.3L57.4,155.9z M104.1,155.2l-1.1-2.7c1.8-0.7,3.5-1.5,5.2-2.4l1.4,2.6C107.8,153.6,106,154.5,104.1,155.2z
		 M49.3,152.1c-1.7-1-3.4-2-5.1-3.1l1.7-2.4c1.6,1.1,3.2,2.1,4.9,3L49.3,152.1z M112.2,151.2l-1.5-2.5c1.6-1,3.2-2,4.8-3.1l1.7,2.4
		C115.6,149.1,113.9,150.2,112.2,151.2z M41.7,147.2c-1.6-1.2-3.1-2.5-4.6-3.8l2-2.2c1.4,1.3,2.9,2.5,4.4,3.7L41.7,147.2z
		 M119.6,146.2l-1.8-2.3c1.5-1.2,2.9-2.5,4.3-3.8l2,2.1C122.6,143.6,121.1,144.9,119.6,146.2z M35,141.3c-1.4-1.4-2.8-2.9-4-4.4
		l2.3-1.9c1.2,1.5,2.5,2.9,3.8,4.2L35,141.3z M126.1,140.1l-2.1-2c1.3-1.4,2.6-2.8,3.7-4.3l2.3,1.8
		C128.8,137.1,127.5,138.6,126.1,140.1z M29.1,134.5c-1.2-1.6-2.3-3.3-3.3-5l2.5-1.5c1,1.6,2.1,3.2,3.2,4.7L29.1,134.5z
		 M131.8,133.1l-2.4-1.7c1.1-1.5,2.1-3.2,3.1-4.8l2.5,1.5C134,129.8,133,131.5,131.8,133.1z M24.3,126.9c-1-1.7-1.8-3.6-2.6-5.4
		l2.7-1.2c0.7,1.7,1.6,3.5,2.5,5.1L24.3,126.9z M136.5,125.4l-2.6-1.3c0.9-1.7,1.7-3.4,2.4-5.2l2.7,1.1
		C138.2,121.8,137.4,123.7,136.5,125.4z M20.6,118.8c-0.7-1.9-1.3-3.8-1.8-5.7l2.8-0.8c0.5,1.8,1.1,3.7,1.7,5.4L20.6,118.8z
		 M140,117.2l-2.8-0.9c0.6-1.8,1.1-3.6,1.6-5.5l2.8,0.7C141.2,113.4,140.6,115.3,140,117.2z M18.1,110.2c-0.4-1.9-0.8-3.9-1-5.9
		l2.9-0.3c0.2,1.9,0.5,3.8,0.9,5.6L18.1,110.2z M142.3,108.5l-2.9-0.5c0.4-1.9,0.6-3.8,0.8-5.6l2.9,0.3
		C142.9,104.6,142.6,106.6,142.3,108.5z M16.8,101.3c-0.1-1.5-0.2-3.1-0.2-4.7c0-0.4,0-0.9,0-1.3l2.9,0.1c0,0.4,0,0.8,0,1.2
		c0,1.5,0.1,3,0.2,4.5L16.8,101.3z M143.3,99.6l-2.9-0.1c0-1,0.1-1.9,0.1-2.9c0-0.9,0-1.9-0.1-2.8l2.9-0.1c0,1,0.1,2,0.1,3
		C143.4,97.6,143.4,98.6,143.3,99.6z M19.7,92.5l-2.9-0.2c0.1-2,0.4-4,0.7-5.9l2.9,0.5C20,88.7,19.8,90.6,19.7,92.5z M20.8,84
		L18,83.4c0.4-1.9,0.9-3.9,1.5-5.8l2.8,0.9C21.7,80.3,21.2,82.2,20.8,84z M23.2,75.8l-2.7-1c0.7-1.9,1.5-3.7,2.3-5.5l2.6,1.3
		C24.6,72.3,23.9,74,23.2,75.8z M26.7,68l-2.6-1.4c0.9-1.7,2-3.5,3.1-5.1l2.4,1.6C28.6,64.7,27.6,66.3,26.7,68z M31.3,60.8L28.9,59
		c1.2-1.6,2.4-3.2,3.8-4.6l2.2,1.9C33.6,57.7,32.4,59.2,31.3,60.8z M36.8,54.3l-2.1-2c1.4-1.4,2.9-2.8,4.4-4.1l1.9,2.2
		C39.6,51.6,38.2,52.9,36.8,54.3z M43.2,48.6l-1.8-2.3c1.6-1.2,3.2-2.4,4.9-3.4l1.6,2.5C46.3,46.3,44.7,47.4,43.2,48.6z M50.4,43.9
		l-1.4-2.5c1.7-1,3.5-1.9,5.3-2.7l1.2,2.7C53.7,42.1,52,42.9,50.4,43.9z M58.1,40.2L57,37.5c1.8-0.7,3.8-1.4,5.7-1.9l0.8,2.8
		C61.7,38.9,59.9,39.5,58.1,40.2z M66.3,37.7l-0.7-2.8c1.9-0.4,3.9-0.8,5.9-1.1l0.4,2.9C70,36.9,68.1,37.3,66.3,37.7z M74.7,36.4
		l-0.3-2.9c1.8-0.2,3.7-0.2,5.5-0.2l0,2.9C78.2,36.1,76.5,36.2,74.7,36.4z"/>
	<path class="st6" d="M131.2,26.7l-3.1,0.2c0,0-0.8,0-0.9,0c-1.2,0.1-2.3,0.9-2.5,2.1c-0.3,1.2,0.3,2.4,1.3,2.9
		c0.2,0.1,0.8,0.4,0.8,0.4l2.8,1.5c1.1,0.6,1.5,1.9,1,3l0,0c-0.6,1.1-1.9,1.5-3,1l-2.8-1.4c0,0-0.6-0.3-0.7-0.4
		c-1.1-0.6-2.4-0.4-3.3,0.6c-0.8,0.9-0.9,2.3-0.3,3.3c0.1,0.1,0.4,0.6,0.4,0.6l1.8,2.7c0.7,1,0.4,2.4-0.7,3.1
		c-1,0.7-2.4,0.4-3.1-0.7l-1.7-2.7c0,0-0.3-0.5-0.4-0.7c-0.6-1-1.9-1.6-3.1-1.2c-1.2,0.4-1.9,1.5-1.9,2.7c0,0.2,0.1,0.9,0.1,0.9
		l0.2,3.1c0.1,1.2-0.9,2.3-2.1,2.4h0c-1.2,0.1-2.3-0.9-2.4-2.1l-0.2-3.2c0,0,0-0.6,0-0.8c-0.1-1.2-0.9-2.3-2.1-2.5
		c-1.2-0.3-2.4,0.4-3,1.4c-0.1,0.2-0.4,0.8-0.4,0.8l-1.4,2.8c-0.6,1.1-1.9,1.5-3,1c-1.1-0.6-1.5-1.9-1-3l1.4-2.8
		c0,0,0.3-0.6,0.4-0.7c0.6-1.1,0.4-2.4-0.6-3.3c-1-0.9-2.5-0.9-3.5-0.1c-0.1,0.1-0.5,0.4-0.5,0.4l-2.7,1.7c-1,0.7-2.4,0.4-3.1-0.7
		l0,0c-0.7-1-0.4-2.4,0.7-3.1l2.7-1.8c0,0,0.3-0.2,0.4-0.2c1.2-0.6,1.8-2,1.4-3.3c-0.4-1.3-1.7-2.1-3-1.8c-0.1,0-0.3,0-0.3,0
		L86.4,29c-1.2,0.1-2.3-0.9-2.4-2.1l0,0c-0.1-1.2,0.9-2.3,2.1-2.4l3.3-0.2c0,0,0.2,0,0.3,0c1.4,0.1,2.6-0.8,2.9-2.1
		c0.3-1.4-0.5-2.7-1.8-3.1c0,0-0.2-0.1-0.2-0.1l-3-1.5c-1.1-0.6-1.5-1.9-1-3l0,0c0.6-1.1,1.9-1.5,3-1l2.9,1.5c0,0,0.4,0.2,0.5,0.3
		c1.1,0.7,2.5,0.5,3.4-0.5c0.9-1,0.9-2.5,0.1-3.5c0-0.1-0.2-0.3-0.2-0.3L94.6,8c-0.7-1-0.4-2.4,0.7-3.1c1-0.7,2.4-0.4,3.1,0.7
		l1.7,2.6l0.2,0.3c0,0,0.1,0.2,0.2,0.3c0.6,1.1,2,1.7,3.2,1.3c1.2-0.4,2-1.6,1.9-2.8c0-0.1-0.1-1-0.1-1l-0.1-2.9
		c-0.1-1.2,0.9-2.3,2.1-2.4l0,0c1.2-0.1,2.3,0.9,2.4,2.1l0.2,3.1c0,0,0,0.7,0,0.8c0,1.3,0.9,2.4,2.1,2.7c1.2,0.3,2.4-0.4,3-1.4
		c0.1-0.2,0.4-0.9,0.4-0.9l1.4-2.7c0.6-1.1,1.9-1.5,3-1c1.1,0.6,1.5,1.9,1,3l-1.4,2.8c0,0-0.3,0.6-0.4,0.7c-0.6,1.1-0.4,2.4,0.6,3.3
		c1,0.9,2.4,0.9,3.4,0.2c0.1-0.1,0.6-0.4,0.6-0.4l2.6-1.7c1-0.7,2.4-0.4,3.1,0.7l0,0c0.7,1,0.4,2.4-0.7,3.1l-2.6,1.7
		c0,0-0.6,0.4-0.7,0.4c-1,0.7-1.5,1.9-1.1,3.1c0.4,1.2,1.5,1.9,2.7,1.9c0.2,0,0.9-0.1,0.9-0.1l3.1-0.2c1.2-0.1,2.3,0.9,2.4,2.1v0
		C133.4,25.5,132.4,26.6,131.2,26.7z M108.3,15.8c-5.4,0.2-9.6,4.7-9.4,10.1c0.2,5.4,4.7,9.6,10.1,9.4c5.4-0.2,9.6-4.7,9.4-10.1
		C118.3,19.8,113.7,15.6,108.3,15.8z"/>
	<path class="st1" d="M109.9,51.1c-1.7,0-3.1-1.3-3.2-3l-0.2-3.2c0,0,0-0.7,0-0.8c0-0.8-0.6-1.5-1.4-1.6c-0.8-0.2-1.6,0.2-1.9,0.9
		c-0.1,0.1-0.4,0.8-0.4,0.8l-1.4,2.8c-0.4,0.8-1.1,1.3-1.9,1.6s-1.7,0.2-2.4-0.2c-0.8-0.4-1.3-1.1-1.6-1.9c-0.3-0.8-0.2-1.7,0.2-2.5
		l1.4-2.8c0,0,0.3-0.6,0.4-0.7c0.4-0.7,0.2-1.6-0.4-2.1c-0.6-0.6-1.6-0.6-2.2-0.1c-0.1,0.1-0.6,0.4-0.6,0.4l-2.7,1.7
		c-0.7,0.5-1.6,0.6-2.4,0.4c-0.7-0.2-1.4-0.6-1.9-1.2l0,0l-0.1-0.2c-1-1.5-0.5-3.5,0.9-4.4l2.7-1.8c0,0,0.4-0.2,0.5-0.3
		c0.8-0.4,1.1-1.3,0.9-2.1c-0.3-0.8-1.1-1.3-1.9-1.2c-0.1,0-0.4,0-0.4,0l-3.4,0.2c-1.8,0.1-3.3-1.3-3.4-3c-0.1-1.8,1.3-3.3,3-3.4
		l3.3-0.2l0,0c0,0,0.3,0,0.4,0c0.9,0.1,1.7-0.5,1.9-1.4c0.2-0.9-0.3-1.7-1.2-2c-0.1,0-0.2-0.1-0.3-0.2l-3-1.5
		c-0.8-0.4-1.3-1.1-1.6-1.9c-0.3-0.8-0.2-1.7,0.2-2.5c0.4-0.8,1.1-1.3,1.9-1.6c0.8-0.3,1.7-0.2,2.5,0.2l2.9,1.5c0,0,0.4,0.2,0.5,0.3
		c0.7,0.4,1.6,0.3,2.2-0.3c0.6-0.6,0.6-1.6,0.1-2.3c-0.1-0.1-0.3-0.4-0.3-0.4l-1.8-2.8c-1-1.5-0.5-3.5,0.9-4.4
		c0.7-0.5,1.6-0.6,2.4-0.4c0.8,0.2,1.6,0.7,2,1.4l1.9,2.9l0,0c0.1,0.1,0.1,0.2,0.2,0.3c0.4,0.8,1.3,1.1,2.1,0.9
		c0.8-0.3,1.3-1,1.2-1.8l-0.1-1l-0.2-2.9c-0.1-1.8,1.3-3.3,3-3.4c1.7-0.1,3.3,1.3,3.4,3l0.2,3.1c0,0,0,0.7,0,0.9
		c0,0.8,0.6,1.5,1.4,1.7c0.8,0.2,1.6-0.2,1.9-0.9c0.1-0.1,0.4-0.8,0.4-0.8l1.4-2.8c0.8-1.6,2.7-2.2,4.3-1.4c1.6,0.8,2.2,2.7,1.4,4.3
		l-1.4,2.8c0,0-0.3,0.6-0.4,0.8c-0.4,0.7-0.2,1.6,0.4,2.1c0.6,0.6,1.5,0.6,2.2,0.1c0.1-0.1,0.6-0.4,0.6-0.4l2.7-1.7
		c0.7-0.5,1.6-0.6,2.4-0.4c0.8,0.2,1.6,0.7,2,1.4c1,1.5,0.5,3.5-1,4.4l-2.6,1.7c0,0-0.6,0.4-0.7,0.4c-0.7,0.4-1,1.3-0.7,2
		c0.2,0.7,0.9,1.2,1.7,1.2c0.2,0,0.8-0.1,0.8-0.1l3.2-0.2c1.7-0.1,3.3,1.3,3.4,3c0.1,1.8-1.3,3.3-3,3.4h0l-3.1,0.2c0,0-0.8,0-0.9,0
		c-0.8,0-1.5,0.6-1.6,1.4c-0.2,0.8,0.2,1.5,0.9,1.9c0.2,0.1,0.8,0.4,0.8,0.4l2.9,1.5c1.6,0.8,2.2,2.7,1.4,4.3l-0.1,0.2
		c-0.4,0.7-1,1.1-1.8,1.4c-0.8,0.3-1.7,0.2-2.5-0.2l-2.8-1.4c0,0-0.6-0.3-0.7-0.4c-0.7-0.4-1.6-0.2-2.1,0.4
		c-0.5,0.6-0.6,1.4-0.2,2.1c0.1,0.1,0.4,0.6,0.4,0.6l1.8,2.8c1,1.5,0.5,3.5-0.9,4.4c-0.7,0.5-1.6,0.6-2.4,0.4
		c-0.8-0.2-1.6-0.7-2-1.4l-1.7-2.7c0,0-0.3-0.6-0.4-0.7c-0.4-0.7-1.2-1-2-0.7c-0.7,0.2-1.2,1-1.2,1.7c0,0.2,0.1,0.8,0.1,0.8l0.2,3.2
		c0.1,1.8-1.3,3.3-3,3.4C110,51.1,109.9,51.1,109.9,51.1z M104.7,40.5c0.3,0,0.5,0,0.8,0.1c1.6,0.4,2.8,1.8,2.9,3.4
		c0,0.2,0,0.8,0,0.8l0.2,3.1c0,0.7,0.7,1.2,1.3,1.2c0.3,0,0.6-0.2,0.9-0.4s0.3-0.6,0.3-0.9l-0.2-3.1c0,0-0.1-0.7-0.1-0.9
		c-0.1-1.7,1-3.2,2.5-3.7c1.6-0.5,3.4,0.1,4.3,1.6c0.1,0.1,0.4,0.7,0.4,0.7l1.7,2.6c0.2,0.3,0.5,0.5,0.8,0.5c0.3,0.1,0.7,0,0.9-0.2
		c0.6-0.4,0.8-1.2,0.4-1.7l-1.8-2.7c0,0-0.4-0.5-0.5-0.6c-0.9-1.4-0.7-3.2,0.4-4.5c1.1-1.3,3-1.6,4.5-0.8c0.1,0.1,0.7,0.4,0.7,0.4
		l2.8,1.4c0.3,0.2,0.6,0.2,1,0.1c0.3-0.1,0.6-0.3,0.7-0.6l0,0c0.3-0.6,0-1.3-0.6-1.7l-2.8-1.4c0,0-0.7-0.3-0.9-0.4
		c-1.4-0.8-2.2-2.4-1.8-4c0.3-1.6,1.8-2.8,3.4-2.9c0.2,0,1,0,1,0l3-0.2c0.7,0,1.2-0.6,1.2-1.3s-0.6-1.2-1.3-1.2l-3.1,0.2
		c0,0-0.7,0.1-0.9,0.1c-1.7,0.1-3.2-1-3.7-2.5c-0.5-1.6,0.1-3.3,1.5-4.2c0.1-0.1,0.8-0.5,0.8-0.5l2.6-1.7c0.6-0.4,0.8-1.2,0.4-1.8
		c-0.2-0.3-0.5-0.5-0.8-0.5c-0.3-0.1-0.7,0-1,0.2l-2.6,1.7c0,0-0.4,0.3-0.5,0.4c-1.4,1-3.4,0.9-4.7-0.2c-1.3-1.1-1.6-3-0.8-4.5
		c0.1-0.1,0.4-0.8,0.4-0.8l1.4-2.7c0.3-0.6,0.1-1.4-0.6-1.7c-0.6-0.3-1.4-0.1-1.7,0.6l-1.4,2.7c0,0-0.3,0.7-0.4,0.9
		c-0.8,1.5-2.4,2.3-4.1,1.9c-1.7-0.4-2.9-1.8-2.9-3.6c0-0.1,0-0.8,0-0.8l-0.2-3c0-0.7-0.6-1.2-1.3-1.2c-0.7,0-1.2,0.6-1.2,1.3
		l0.2,3.9c0.2,1.7-0.9,3.3-2.5,3.8c-1.7,0.5-3.5-0.2-4.4-1.7l-0.3-0.5l-1.7-2.6c-0.2-0.3-0.5-0.5-0.8-0.5c-0.3-0.1-0.7,0-0.9,0.2
		c-0.6,0.4-0.8,1.2-0.4,1.8l1.8,2.8l0,0c0,0,0.1,0.2,0.2,0.3c1.1,1.4,1.1,3.4-0.1,4.8c-1.2,1.3-3.2,1.6-4.7,0.7
		c-0.1,0-0.4-0.2-0.4-0.2l-2.9-1.5c-0.3-0.2-0.6-0.2-1-0.1c-0.3,0.1-0.6,0.3-0.7,0.6c-0.2,0.3-0.2,0.6-0.1,1
		c0.1,0.3,0.3,0.6,0.6,0.7l3.1,1.6c1.8,0.6,2.8,2.4,2.4,4.3c-0.4,1.8-2.1,3.1-3.9,2.9c0,0-0.1,0-0.1,0l-3.4,0.2
		c-0.7,0-1.2,0.6-1.2,1.3c0,0.7,0.6,1.2,1.3,1.2l3.4-0.2l0,0c0,0,0.2,0,0.3,0c1.8-0.3,3.5,0.8,4.1,2.5c0.6,1.7-0.2,3.6-1.9,4.4
		c-0.1,0-0.3,0.2-0.3,0.2l-2.7,1.8c-0.6,0.4-0.7,1.1-0.4,1.7l0,0c0.2,0.3,0.5,0.5,0.8,0.5c0.3,0.1,0.7,0,1-0.2l2.7-1.7
		c0,0,0.4-0.2,0.5-0.3c1.4-1.1,3.4-1,4.7,0.2c1.3,1.1,1.6,3,0.8,4.5c-0.1,0.1-0.4,0.7-0.4,0.7l-1.4,2.8c-0.2,0.3-0.2,0.6-0.1,1
		s0.3,0.6,0.6,0.7c0.3,0.2,0.6,0.2,1,0.1c0.3-0.1,0.6-0.3,0.7-0.6l1.4-2.8c0,0,0.3-0.7,0.4-0.8C102.1,41.2,103.4,40.5,104.7,40.5z
		 M108.7,36.3c-5.8,0-10.5-4.6-10.8-10.4c-0.1-2.9,0.9-5.6,2.9-7.7c2-2.1,4.6-3.3,7.5-3.4l0,0c5.9-0.2,10.9,4.4,11.2,10.4
		c0.2,5.9-4.4,10.9-10.4,11.2C109,36.3,108.8,36.3,108.7,36.3z M108.4,16.8c-2.4,0.1-4.5,1.1-6.1,2.8c-1.6,1.7-2.4,4-2.4,6.3
		c0.2,4.9,4.2,8.7,9.1,8.5c4.9-0.2,8.7-4.3,8.5-9.1C117.3,20.4,113.2,16.6,108.4,16.8L108.4,16.8z"/>
</g>
<g id="lamp" class="st0">
	<path class="st5" d="M80,108.6C80,108.6,80,108.6,80,108.6c-2.5,0-4.9-1.7-6.6-4.7L71,99.6c-2.9-5.2-10-8.1-15.7-6.5l-4.8,1.3
		c-3.3,0.9-6.1,0.4-7.9-1.3c-1.8-1.8-2.3-4.6-1.3-7.9l1.3-4.8c1.6-5.7-1.3-12.8-6.5-15.7l-4.3-2.4c-3-1.7-4.7-4-4.7-6.6
		c0-2.5,1.7-4.9,4.7-6.6l4.3-2.4c5.2-2.9,8.1-10,6.5-15.7l-1.3-4.8c-0.9-3.3-0.4-6.1,1.3-7.9c1.8-1.8,4.6-2.3,7.9-1.3l4.8,1.3
		c5.7,1.6,12.8-1.3,15.7-6.5l2.4-4.3c1.7-3,4-4.7,6.6-4.7s4.9,1.7,6.6,4.7l2.4,4.3c2.9,5.2,10,8.1,15.7,6.5l4.8-1.3
		c3.3-0.9,6.1-0.4,7.9,1.3c1.8,1.8,2.3,4.6,1.3,7.9l-1.3,4.8c-1.6,5.7,1.3,12.8,6.5,15.7l4.3,2.4c3,1.7,4.7,4,4.7,6.6
		c0,2.5-1.7,4.9-4.7,6.6l-4.3,2.4c-5.2,2.9-8.1,10-6.5,15.7l1.3,4.8c0.9,3.3,0.4,6.1-1.3,7.9c-1.8,1.8-4.6,2.3-7.9,1.3l-4.8-1.3
		C99,91.5,91.9,94.4,89,99.6l-2.4,4.3C84.9,106.9,82.5,108.6,80,108.6z M58.5,90.7c5.6,0,11.5,3.1,14.2,7.9l2.4,4.3
		c1.3,2.3,3,3.6,4.8,3.6s3.5-1.3,4.8-3.6l2.4-4.3c3.4-5.9,11.4-9.3,18-7.4l4.8,1.3c2.6,0.7,4.7,0.4,6-0.8c1.3-1.3,1.6-3.4,0.8-6
		l-1.3-4.8c-1.8-6.6,1.5-14.6,7.4-18l4.3-2.4c2.3-1.3,3.6-3,3.6-4.8c0-1.8-1.3-3.5-3.6-4.8l-4.3-2.4c-5.9-3.4-9.3-11.4-7.4-18
		l1.3-4.8c0.7-2.6,0.4-4.7-0.8-6c-1.3-1.3-3.4-1.6-6-0.8l-4.8,1.3c-6.6,1.8-14.6-1.5-18-7.4l-2.4-4.3c-1.3-2.3-3-3.6-4.8-3.6
		s-3.5,1.3-4.8,3.6l-2.4,4.3c-3.4,5.9-11.4,9.3-18,7.4L50,18.9c-2.6-0.7-4.7-0.4-6,0.8c-1.3,1.3-1.6,3.4-0.8,6l1.3,4.8
		c1.8,6.6-1.5,14.6-7.4,18l-4.3,2.4c-2.3,1.3-3.6,3-3.6,4.8c0,1.8,1.3,3.5,3.6,4.8l4.3,2.4c5.9,3.4,9.3,11.4,7.4,18l-1.3,4.8
		c-0.7,2.6-0.4,4.7,0.8,6c1.3,1.3,3.4,1.6,6,0.8l4.8-1.3C56,90.8,57.2,90.7,58.5,90.7z"/>
	<path class="st6" d="M97.6,114.4c-0.6-3.8-1.5-7.5-2.1-11.2C94.9,99.9,93.8,92,93.3,88H66.7c-0.5,4-1.6,11.9-2.2,15.2
		c-0.6,3.6-1.5,7.4-2.1,11.2c-0.4,2.8-0.7,5.6-0.5,8.4c0.7,9.1,8.8,16,17.8,16c0.1,0,0.1,0,0.2,0c0.1,0,0.1,0,0.2,0
		c9,0,17.2-6.9,17.8-16C98.2,120,98,117.2,97.6,114.4z"/>
	<path class="st1" d="M66,103.5c0.2-1,0.4-2.6,0.7-4.7l-3-0.4c-0.3,2.1-0.5,3.6-0.7,4.6c-0.1,0.4-0.1,0.8-0.2,1.2l2.9,0.6
		C65.9,104.3,66,103.9,66,103.5z M65.1,108.2l0.1-0.4l-2.9-0.6l-0.1,0.4c-0.4,1.8-0.7,3.6-1,5.5l3,0.5
		C64.4,111.8,64.8,109.9,65.1,108.2z M68,89.8l-3-0.4c-0.2,1.7-0.5,3.9-0.8,5.9l3,0.4C67.5,93.7,67.7,91.6,68,89.8z M63.4,120.7
		c0-1.3,0.1-2.7,0.3-4.3l-3-0.3c-0.2,1.7-0.3,3.2-0.3,4.6c0,0.5,0,1.1,0,1.6l3-0.2C63.4,121.7,63.4,121.2,63.4,120.7z M65.5,134.1
		c1.4,1.5,3.1,2.8,5,3.8l1.4-2.6c-1.6-0.9-3-2-4.2-3.3L65.5,134.1z M63.8,124.9l-2.9,0.7c0.5,2.1,1.4,4.1,2.6,6l2.5-1.7
		C64.9,128.4,64.2,126.7,63.8,124.9z M92.8,95.6l3-0.4c-0.3-2.1-0.6-4.2-0.8-5.9l-3,0.4C92.2,91.4,92.5,93.5,92.8,95.6z M94,103.5
		c0.1,0.4,0.1,0.7,0.2,1.1l2.9-0.6c-0.1-0.4-0.1-0.7-0.2-1.1c-0.2-1-0.4-2.6-0.7-4.8l-3,0.4C93.5,100.8,93.8,102.4,94,103.5z
		 M94.9,108.3c0.3,1.7,0.7,3.4,1,5.2l3-0.5c-0.3-1.8-0.7-3.5-1-5.3l-0.1-0.7l-2.9,0.6L94.9,108.3z M94.1,129.8l2.5,1.6
		c1.2-1.9,2.1-3.9,2.5-6l-2.9-0.6C95.8,126.6,95.1,128.2,94.1,129.8z M88.1,135.3l1.4,2.6c1.9-1,3.6-2.4,5.1-4l-2.2-2
		C91.2,133.3,89.7,134.4,88.1,135.3z M99.3,116l-3,0.4c0.2,1.6,0.3,3.1,0.3,4.4c0,0.4,0,0.9,0,1.3l3,0.1c0-0.5,0-1,0-1.5
		C99.6,119.3,99.5,117.7,99.3,116z"/>
	<path class="st7" d="M80,138.8"/>
	<path class="st1" d="M85.4,64.7H74.6c-0.5,0-1,0.4-1,1v1c0,0.6,0.5,1,1,1h10.8c0.5,0,1-0.4,1-1v-1C86.4,65.1,86,64.7,85.4,64.7z
		 M76.5,66.7h-1c-0.3,0-0.5-0.2-0.5-0.5c0-0.3,0.2-0.5,0.5-0.5h1c0.3,0,0.5,0.2,0.5,0.5C77,66.4,76.8,66.7,76.5,66.7z M80.5,66.7h-1
		c-0.3,0-0.5-0.2-0.5-0.5c0-0.3,0.2-0.5,0.5-0.5h1c0.3,0,0.5,0.2,0.5,0.5C81,66.4,80.8,66.7,80.5,66.7z M84.5,66.7h-1
		c-0.3,0-0.5-0.2-0.5-0.5c0-0.3,0.2-0.5,0.5-0.5h1c0.3,0,0.5,0.2,0.5,0.5C85,66.4,84.8,66.7,84.5,66.7z"/>
	<path class="st1" d="M92.1,74.5c0-5.7-5.7-5.9-5.7-5.9H73.6c0,0-5.7,0.2-5.7,5.9s-1.5,9.9-4.1,9.9v3.7h32.4v-3.7
		C93.6,84.5,92.1,80.2,92.1,74.5z"/>
	<rect x="76" y="62.2" class="st1" width="8" height="2"/>
	<rect x="60" y="157.5" class="st1" width="40" height="2.5"/>
	<path class="st1" d="M84,138.9v-4.5h-8v4.5h-8.5c0,0.6,0.4,1,1,1h23c0.6,0,1-0.4,1-1H84z"/>
	<path class="st1" d="M86.8,144.6H87v-3.8H73v3.8h0c-6.5,1.5-11.1,5.1-11.1,9.4v2.5h36V154C97.9,149.8,93.3,146.2,86.8,144.6z"/>
	<path class="st1" d="M80,73.2c-9.5,0-17.2-7.7-17.2-17.2S70.5,38.9,80,38.9s17.2,7.7,17.2,17.2S89.5,73.2,80,73.2z M80,40.9
		c-8.4,0-15.2,6.8-15.2,15.2c0,8.4,6.8,15.2,15.2,15.2c8.4,0,15.2-6.8,15.2-15.2C95.2,47.7,88.4,40.9,80,40.9z"/>
	<path class="st1" d="M79.9,119.9c0,0-3.5,3.4-3.5,7.4c0.1,4,1.7,5,1.7,5s1.3,0.3,1.3-2c0-2.4,0.4-2.3,0.4-2.3s0.4-0.1,0.4,2.3
		c0,2.4,1.3,2,1.3,2s1.7-1,1.7-5C83.4,123.3,79.9,119.9,79.9,119.9z"/>
	<rect x="79.4" y="131.9" class="st1" width="1" height="2.5"/>
</g>
<g id="scan" class="st0">
	<circle class="st6" cx="124.4" cy="101.1" r="18.9"/>
	<path class="st1" d="M138.8,86.7c-3.9-3.9-9-6-14.4-6c-5.4,0-10.6,2.1-14.4,6c-3.9,3.9-6,9-6,14.4c0,4.7,1.6,9.2,4.5,12.8
		l-15.4,15.4c-0.8,0.8-0.8,2.2,0,3.1c0.8,0.8,2.2,0.8,3.1,0l15.4-15.4c3.7,3,8.3,4.5,12.8,4.5c5.2,0,10.4-2,14.4-6
		C146.8,107.6,146.8,94.7,138.8,86.7z M136.7,113.4c-6.8,6.8-17.8,6.8-24.6,0c-3.3-3.3-5.1-7.7-5.1-12.3s1.8-9,5.1-12.3
		c3.3-3.3,7.7-5.1,12.3-5.1c4.6,0,9,1.8,12.3,5.1C143.5,95.6,143.5,106.7,136.7,113.4z"/>
	<path class="st1" d="M114,160h-5.8v-3l6,0l0.1,3L114,160z M105.1,160h-6v-3h6V160z M96.1,160h-6v-3h6V160z M87.1,160h-6v-3h6V160z
		 M78.1,160h-6v-3h6V160z M69.1,160h-6v-3h6V160z M60.1,160h-6v-3h6V160z M51.1,160h-0.9c-2,0-3.9-0.5-5.6-1.5l1.5-2.6
		c1.3,0.7,2.7,1.1,4.1,1.1h0.9V160z M117.5,159.4l-0.9-2.8c1.6-0.5,3-1.5,4.1-2.9l2.4,1.8C121.6,157.3,119.7,158.7,117.5,159.4z
		 M41.9,156.4c-1.6-1.7-2.7-3.8-3-6.1l3-0.5c0.3,1.7,1,3.2,2.2,4.5L41.9,156.4z M124.7,152.5l-2.8-1.1c0.4-0.9,0.5-1.9,0.5-2.9V146
		h3v2.5C125.5,149.9,125.2,151.2,124.7,152.5z M41.7,147.1h-3v-6h3V147.1z M125.5,143h-3v-6h3V143z M41.7,138.1h-3V136h3V138.1z
		 M125.5,134h-3v-6h3V134z M125.5,125h-3v-6h3V125z M125.5,116h-3v-6h3V116z M125.5,107h-3v-6h3V107z M125.5,98h-3v-6h3V98z
		 M125.5,89h-3v-6h3V89z M125.5,80h-3v-6h3V80z M125.5,71h-3v-6h3V71z M125.5,62h-3v-6h3V62z"/>
	<path class="st1" d="M41.7,136h-3v-98c0-6.3,5.2-11.5,11.5-11.5H114c6.3,0,11.5,5.2,11.5,11.5v18h-3v-18c0-4.7-3.8-8.5-8.5-8.5
		H50.2c-4.7,0-8.5,3.8-8.5,8.5V136z"/>
	<g class="st2">
		<path class="st8" d="M65.2,85.5c0,2.8-2.3,5-5,5h-40c-2.8,0-5-2.2-5-5v-7c0-2.8,2.3-5,5-5h40c2.8,0,5,2.2,5,5V85.5z"/>
	</g>
	<polygon class="st9" points="50.7,86.7 47.1,82.5 49,80.9 51,83.2 57.3,78 58.9,79.9 	"/>
	<g class="st2">
		<path class="st8" d="M65.2,112.3c0,2.8-2.3,5-5,5h-40c-2.8,0-5-2.2-5-5v-7c0-2.8,2.3-5,5-5h40c2.8,0,5,2.2,5,5V112.3z"/>
	</g>
	<polygon class="st9" points="50.7,113.6 47.1,109.3 49,107.7 51,110.1 57.3,104.8 58.9,106.7 	"/>
</g>
<g id="palette" class="st0">
	<path class="st5" d="M82.6,35.2c0.5-0.8,1-1.6,1.6-2.3c0,0.1-0.1,0.1-0.1,0.2L32.6,94.3c-5.3,6.3-4.5,15.8,1.8,21.1l1.6,1.3
		c0.3-1.3,0.8-2.5,1.5-3.7L82.6,35.2z"/>
	<path class="st1" d="M43.9,135.9l-1.6-0.9c-1.3-0.8-2.5-1.7-3.6-2.8l2.2-2.1c0.9,0.9,1.8,1.6,2.9,2.3l1.6,0.9L43.9,135.9z
		 M36.7,129.6c-1.2-1.9-2-3.9-2.4-6.1l3-0.5c0.3,1.8,1,3.5,2,5L36.7,129.6z M37.1,120.3l-3-0.1c0.1-2.2,0.5-4.4,1.5-6.4l2.7,1.2
		C37.5,116.7,37.1,118.4,37.1,120.3z M39.6,112.5L37,111l3-5.2l2.6,1.5L39.6,112.5z M44.1,104.7l-2.6-1.5l3-5.2l2.6,1.5L44.1,104.7z
		 M48.6,96.9L46,95.4l3-5.2l2.6,1.5L48.6,96.9z M53.1,89.2l-2.6-1.5l3-5.2l2.6,1.5L53.1,89.2z M57.6,81.4L55,79.9l3-5.2l2.6,1.5
		L57.6,81.4z M62.1,73.6l-2.6-1.5l3-5.2l2.6,1.5L62.1,73.6z M66.6,65.8L64,64.3l3-5.2l2.6,1.5L66.6,65.8z M71.1,58l-2.6-1.5l3-5.2
		l2.6,1.5L71.1,58z M75.6,50.2L73,48.7l3-5.2l2.6,1.5L75.6,50.2z M80.1,42.4l-2.6-1.5l3-5.2l2.6,1.5L80.1,42.4z"/>
	<path class="st6" d="M119.5,35.4l-18.8-6.8c-7.8-2.8-16.4,1.2-19.2,9l-34.2,94c-2.8,7.8,1.2,16.4,9,19.2l18.8,6.8
		c7.8,2.8,16.4-1.2,19.2-9l34.2-94C131.3,46.9,127.2,38.3,119.5,35.4z M94,47.1c-2.6-0.9-3.9-3.8-3-6.4c0.9-2.6,3.8-3.9,6.4-3
		c2.6,0.9,3.9,3.8,3,6.4C99.4,46.7,96.6,48,94,47.1z"/>
	<path class="st1" d="M80.1,160c-1.9,0-3.8-0.3-5.6-1l-18.8-6.8c-4.1-1.5-7.4-4.5-9.3-8.5c-1.9-4-2.1-8.5-0.6-12.6l34.2-94
		c1.5-4.1,4.5-7.4,8.5-9.3c4-1.9,8.5-2.1,12.6-0.6L120,34c8.5,3.1,13,12.6,9.9,21.1l-34.2,94c-1.5,4.1-4.5,7.4-8.5,9.3
		C84.9,159.5,82.5,160,80.1,160z M95.6,29.2c-1.9,0-3.9,0.4-5.7,1.3c-3.3,1.5-5.8,4.2-7,7.6l-34.2,94c-1.2,3.4-1.1,7,0.5,10.3
		s4.2,5.8,7.6,7l18.8,6.8c7,2.5,14.8-1.1,17.3-8.1l34.2-94c2.5-7-1.1-14.8-8.1-17.3L100.2,30C98.7,29.5,97.1,29.2,95.6,29.2z
		 M95.7,48.9c-0.7,0-1.5-0.1-2.2-0.4c-3.4-1.2-5.1-5-3.9-8.3c1.2-3.4,5-5.1,8.3-3.9c3.4,1.2,5.1,5,3.9,8.3
		C100.8,47.2,98.3,48.9,95.7,48.9z M95.7,38.9c-1.4,0-2.8,0.9-3.3,2.3c-0.7,1.8,0.3,3.8,2.1,4.5c1.8,0.7,3.8-0.3,4.5-2.1
		s-0.3-3.8-2.1-4.5C96.5,39,96.1,38.9,95.7,38.9z"/>
</g>
<g>
	<path class="st8" d="M80,80c-7.9,0-15.2,2.3-21.4,6.2v-32c0-11.8,9.6-21.4,21.4-21.4c11.8,0,21.4,9.6,21.4,21.4V70c0,1.7,1.3,3,3,3
		s3-1.3,3-3V54.2c0-15.1-12.3-27.4-27.4-27.4c-15.1,0-27.4,12.3-27.4,27.4v36.7C44.8,98.2,40,108.5,40,120c0,22.1,17.9,40,40,40
		c22.1,0,40-17.9,40-40C120,97.9,102.1,80,80,80z"/>
	<circle class="st3" cx="80" cy="120" r="30"/>
	<path class="st4" d="M80,152c-1.4,0-2.8-0.1-4.1-0.3l0.5-4c1.8,0.2,3.7,0.3,5.6,0.2l0.3,4C81.5,152,80.8,152,80,152z M85.5,151.5
		l-0.7-3.9c1.8-0.3,3.6-0.8,5.4-1.5l1.5,3.7C89.6,150.6,87.6,151.2,85.5,151.5z M72.8,151.2c-2.1-0.5-4.1-1.2-6-2.1l1.7-3.6
		c1.7,0.8,3.5,1.4,5.3,1.8L72.8,151.2z M94.5,148.5l-1.8-3.6c1.7-0.8,3.2-1.9,4.7-3l2.5,3.1C98.2,146.4,96.4,147.6,94.5,148.5z
		 M63.9,147.6c-1.8-1.1-3.6-2.3-5.2-3.8l2.7-3c1.4,1.2,2.9,2.4,4.5,3.3L63.9,147.6z M102.3,142.9l-2.8-2.9c1.3-1.3,2.5-2.7,3.6-4.3
		l3.3,2.3C105.2,139.8,103.8,141.5,102.3,142.9z M56.4,141.6c-1.4-1.6-2.7-3.3-3.8-5.1l3.4-2.1c1,1.6,2.1,3.1,3.4,4.5L56.4,141.6z
		 M108.1,135.3l-3.5-1.9c0.9-1.6,1.6-3.4,2.2-5.1l3.8,1.2C110,131.5,109.1,133.5,108.1,135.3z M51.1,133.7c-0.9-1.9-1.6-4-2.1-6
		l3.9-1c0.4,1.8,1.1,3.6,1.9,5.3L51.1,133.7z M111.4,126.4l-3.9-0.8c0.4-1.8,0.6-3.7,0.6-5.6h4C112,122.1,111.8,124.3,111.4,126.4z
		 M48.3,124.6c-0.2-1.5-0.3-3-0.3-4.6c0-0.6,0-1.2,0.1-1.8l4,0.2c0,0.5,0,1.1,0,1.6c0,1.3,0.1,2.7,0.3,4L48.3,124.6z M107.9,117.6
		c-0.2-1.9-0.5-3.7-1-5.5l3.8-1.1c0.6,2,1,4.2,1.2,6.3L107.9,117.6z M52.3,115.6l-4-0.6c0.3-2.1,0.9-4.2,1.6-6.2l3.7,1.4
		C53.1,112,52.6,113.8,52.3,115.6z M106,109.5c-0.7-1.7-1.6-3.4-2.6-4.9l3.3-2.2c1.2,1.8,2.2,3.7,3,5.6L106,109.5z M54.9,107.6
		l-3.6-1.8c0.9-1.9,2.1-3.7,3.4-5.4l3.2,2.4C56.7,104.4,55.7,106,54.9,107.6z M101.7,102.3c-1.2-1.4-2.5-2.8-4-4l2.5-3.1
		c1.6,1.3,3.2,2.9,4.5,4.5L101.7,102.3z M59.6,100.8L56.7,98c1.5-1.5,3.1-3,4.8-4.2l2.3,3.3C62.3,98.2,60.9,99.4,59.6,100.8z
		 M95.5,96.7c-1.6-1-3.2-1.9-4.9-2.6l1.5-3.7c2,0.8,3.9,1.8,5.6,3L95.5,96.7z M66.2,95.6l-2-3.5c1.9-1,3.8-1.9,5.8-2.6l1.2,3.8
		C69.6,93.9,67.9,94.7,66.2,95.6z M87.9,93.1c-1.8-0.5-3.6-0.9-5.5-1l0.3-4c2.1,0.2,4.2,0.6,6.3,1.2L87.9,93.1z M74,92.6l-0.8-3.9
		c2.1-0.4,4.2-0.7,6.3-0.7l0.1,4C77.7,92,75.9,92.2,74,92.6z"/>
	<path class="st4" d="M85,115c0-2.8-2.2-5-5-5s-5,2.2-5,5c0,1.8,1,3.4,2.5,4.3V130h5v-10.7C84,118.4,85,116.8,85,115z"/>
</g>
</svg>
